<svg width="441" height="93" viewBox="0 0 441 93" fill="none" xmlns="http://www.w3.org/2000/svg">
<g clip-path="url(#clip0_141_1300)">
<path d="M0 44.5C0 32.6259 9.62588 23 21.5 23H258.477C261.155 23 263.828 22.7849 266.471 22.3568L361.206 7.01239C384.542 3.23261 406.145 20.151 408.068 43.7127C410.277 70.7674 385.778 92.2993 359.231 86.6359L267.658 67.1004C264.229 66.3688 260.732 66 257.226 66H21.5C9.62588 66 0 56.3741 0 44.5Z" fill="#3D4849"/>
<path d="M28.3384 43.4849V47.6377C28.1821 47.8379 27.9355 48.0552 27.5986 48.2896C27.2666 48.5239 26.832 48.7266 26.2949 48.8975C25.7578 49.0635 25.0986 49.1465 24.3174 49.1465C23.6387 49.1465 23.0186 49.0342 22.457 48.8096C21.8955 48.5801 21.4121 48.2456 21.0068 47.8062C20.6016 47.3667 20.2891 46.8296 20.0693 46.1948C19.8496 45.5601 19.7397 44.835 19.7397 44.0195V43.3164C19.7397 42.501 19.8423 41.7759 20.0474 41.1411C20.2573 40.5063 20.5552 39.9692 20.9409 39.5298C21.3315 39.0903 21.7979 38.7559 22.3398 38.5264C22.8867 38.2969 23.4971 38.1821 24.1709 38.1821C25.0742 38.1821 25.8164 38.3311 26.3975 38.6289C26.9834 38.9268 27.4326 39.3369 27.7451 39.8594C28.0576 40.377 28.2529 40.9727 28.3311 41.6465H26.3682C26.3145 41.2754 26.207 40.9507 26.0459 40.6724C25.8848 40.3892 25.6553 40.1694 25.3574 40.0132C25.0645 39.8521 24.6836 39.7715 24.2148 39.7715C23.8193 39.7715 23.4702 39.8496 23.1675 40.0059C22.8647 40.1621 22.6108 40.3892 22.4058 40.687C22.2007 40.9849 22.0444 41.3535 21.937 41.793C21.8345 42.2324 21.7832 42.7354 21.7832 43.3018V44.0195C21.7832 44.5908 21.8418 45.0986 21.959 45.543C22.0762 45.9824 22.2446 46.3535 22.4644 46.6562C22.689 46.9541 22.9648 47.1812 23.292 47.3374C23.624 47.4888 24 47.5645 24.4199 47.5645C24.8008 47.5645 25.1157 47.5327 25.3647 47.4692C25.6187 47.4009 25.8213 47.3203 25.9727 47.2275C26.124 47.1348 26.2412 47.0444 26.3242 46.9565V44.957H24.2075V43.4849H28.3384ZM37.3105 47.418V49H31.6416V47.418H37.3105ZM32.2568 38.3359V49H30.2427V38.3359H32.2568ZM36.5708 42.7378V44.2832H31.6416V42.7378H36.5708ZM37.2886 38.3359V39.9253H31.6416V38.3359H37.2886ZM43.4336 38.3359V49H41.4268V38.3359H43.4336ZM46.7441 38.3359V39.9253H38.1528V38.3359H46.7441ZM55.665 38.3359V49H53.6582V38.3359H55.665ZM58.9756 38.3359V39.9253H50.3843V38.3359H58.9756ZM68.7461 43.397V43.9463C68.7461 44.752 68.6387 45.4771 68.4238 46.1216C68.209 46.7612 67.9038 47.3057 67.5083 47.7549C67.1128 48.2041 66.6416 48.5483 66.0947 48.7876C65.5479 49.0269 64.9399 49.1465 64.271 49.1465C63.6118 49.1465 63.0063 49.0269 62.4546 48.7876C61.9077 48.5483 61.4341 48.2041 61.0337 47.7549C60.6333 47.3057 60.3232 46.7612 60.1035 46.1216C59.8838 45.4771 59.7739 44.752 59.7739 43.9463V43.397C59.7739 42.5864 59.8838 41.8613 60.1035 41.2217C60.3232 40.582 60.6309 40.0376 61.0264 39.5884C61.4219 39.1343 61.8931 38.7876 62.4399 38.5483C62.9917 38.3091 63.5972 38.1895 64.2563 38.1895C64.9253 38.1895 65.5332 38.3091 66.0801 38.5483C66.627 38.7876 67.0981 39.1343 67.4937 39.5884C67.894 40.0376 68.2017 40.582 68.4165 41.2217C68.6362 41.8613 68.7461 42.5864 68.7461 43.397ZM66.71 43.9463V43.3823C66.71 42.8013 66.6562 42.291 66.5488 41.8516C66.4414 41.4072 66.2827 41.0337 66.0728 40.731C65.8628 40.4282 65.604 40.2012 65.2964 40.0498C64.9888 39.8936 64.6421 39.8154 64.2563 39.8154C63.8657 39.8154 63.519 39.8936 63.2163 40.0498C62.9185 40.2012 62.6646 40.4282 62.4546 40.731C62.2446 41.0337 62.0835 41.4072 61.9712 41.8516C61.8638 42.291 61.8101 42.8013 61.8101 43.3823V43.9463C61.8101 44.5225 61.8638 45.0327 61.9712 45.4771C62.0835 45.9214 62.2446 46.2974 62.4546 46.605C62.6694 46.9077 62.9282 47.1372 63.231 47.2935C63.5337 47.4497 63.8804 47.5278 64.271 47.5278C64.6616 47.5278 65.0083 47.4497 65.311 47.2935C65.6138 47.1372 65.8677 46.9077 66.0728 46.605C66.2827 46.2974 66.4414 45.9214 66.5488 45.4771C66.6562 45.0327 66.71 44.5225 66.71 43.9463ZM76.2021 38.3359V49H74.188V38.3359H76.2021ZM82.6035 38.3359L78.3262 43.5361L75.8799 46.1509L75.521 44.1953L77.2202 41.9907L80.1353 38.3359H82.6035ZM80.3623 49L77.0444 44.0049L78.4873 42.7012L82.7573 49H80.3623ZM92.2642 38.3359V49H90.2427L85.709 41.6025V49H83.6948V38.3359H85.709L90.2573 45.7407V38.3359H92.2642ZM102.95 43.397V43.9463C102.95 44.752 102.843 45.4771 102.628 46.1216C102.413 46.7612 102.108 47.3057 101.712 47.7549C101.317 48.2041 100.846 48.5483 100.299 48.7876C99.752 49.0269 99.144 49.1465 98.4751 49.1465C97.8159 49.1465 97.2104 49.0269 96.6587 48.7876C96.1118 48.5483 95.6382 48.2041 95.2378 47.7549C94.8374 47.3057 94.5273 46.7612 94.3076 46.1216C94.0879 45.4771 93.978 44.752 93.978 43.9463V43.397C93.978 42.5864 94.0879 41.8613 94.3076 41.2217C94.5273 40.582 94.835 40.0376 95.2305 39.5884C95.626 39.1343 96.0972 38.7876 96.644 38.5483C97.1958 38.3091 97.8013 38.1895 98.4604 38.1895C99.1294 38.1895 99.7373 38.3091 100.284 38.5483C100.831 38.7876 101.302 39.1343 101.698 39.5884C102.098 40.0376 102.406 40.582 102.621 41.2217C102.84 41.8613 102.95 42.5864 102.95 43.397ZM100.914 43.9463V43.3823C100.914 42.8013 100.86 42.291 100.753 41.8516C100.646 41.4072 100.487 41.0337 100.277 40.731C100.067 40.4282 99.8081 40.2012 99.5005 40.0498C99.1929 39.8936 98.8462 39.8154 98.4604 39.8154C98.0698 39.8154 97.7231 39.8936 97.4204 40.0498C97.1226 40.2012 96.8687 40.4282 96.6587 40.731C96.4487 41.0337 96.2876 41.4072 96.1753 41.8516C96.0679 42.291 96.0142 42.8013 96.0142 43.3823V43.9463C96.0142 44.5225 96.0679 45.0327 96.1753 45.4771C96.2876 45.9214 96.4487 46.2974 96.6587 46.605C96.8735 46.9077 97.1323 47.1372 97.4351 47.2935C97.7378 47.4497 98.0845 47.5278 98.4751 47.5278C98.8657 47.5278 99.2124 47.4497 99.5151 47.2935C99.8179 47.1372 100.072 46.9077 100.277 46.605C100.487 46.2974 100.646 45.9214 100.753 45.4771C100.86 45.0327 100.914 44.5225 100.914 43.9463ZM107.279 46.9565L109.403 38.3359H110.553L110.626 40.1523L108.355 49H107.14L107.279 46.9565ZM105.938 38.3359L107.682 46.9272V49H106.356L103.939 38.3359H105.938ZM112.831 46.8906L114.544 38.3359H116.551L114.134 49H112.809L112.831 46.8906ZM111.102 38.3359L113.226 46.9858L113.351 49H112.135L109.872 40.145L109.959 38.3359H111.102ZM122.44 38.3359H124.183L127.098 46.3633L130.006 38.3359H131.756L127.794 49H126.395L122.44 38.3359ZM121.561 38.3359H123.268L123.575 45.7114V49H121.561V38.3359ZM130.921 38.3359H132.635V49H130.621V45.7114L130.921 38.3359ZM141.754 47.418V49H136.085V47.418H141.754ZM136.7 38.3359V49H134.686V38.3359H136.7ZM141.014 42.7378V44.2832H136.085V42.7378H141.014ZM141.732 38.3359V39.9253H136.085V38.3359H141.732ZM150.975 44.2466H148.25L148.236 42.8257H150.572C150.973 42.8257 151.307 42.7695 151.576 42.6572C151.844 42.5449 152.047 42.3813 152.184 42.1665C152.325 41.9517 152.396 41.6904 152.396 41.3828C152.396 41.041 152.33 40.7627 152.198 40.5479C152.071 40.333 151.871 40.1768 151.598 40.0791C151.324 39.9766 150.978 39.9253 150.558 39.9253H148.902V49H146.888V38.3359H150.558C151.163 38.3359 151.703 38.3945 152.176 38.5117C152.655 38.624 153.06 38.7998 153.392 39.0391C153.724 39.2783 153.976 39.5786 154.146 39.9399C154.322 40.3013 154.41 40.731 154.41 41.229C154.41 41.6685 154.308 42.0737 154.103 42.4448C153.902 42.811 153.592 43.1089 153.172 43.3384C152.757 43.5679 152.23 43.6997 151.59 43.7339L150.975 44.2466ZM150.887 49H147.657L148.5 47.418H150.887C151.288 47.418 151.617 47.3521 151.876 47.2202C152.14 47.0884 152.335 46.9077 152.462 46.6782C152.594 46.4438 152.66 46.1753 152.66 45.8726C152.66 45.5405 152.601 45.2524 152.484 45.0083C152.372 44.7642 152.191 44.5762 151.942 44.4443C151.698 44.3125 151.375 44.2466 150.975 44.2466H148.88L148.895 42.8257H151.561L152.022 43.375C152.638 43.3799 153.138 43.502 153.524 43.7412C153.915 43.9805 154.203 44.2881 154.388 44.6641C154.574 45.04 154.667 45.4453 154.667 45.8799C154.667 46.5635 154.518 47.1372 154.22 47.6011C153.927 48.0649 153.497 48.4141 152.931 48.6484C152.369 48.8828 151.688 49 150.887 49ZM163.478 47.418V49H157.809V47.418H163.478ZM158.424 38.3359V49H156.41V38.3359H158.424ZM162.738 42.7378V44.2832H157.809V42.7378H162.738ZM163.456 38.3359V39.9253H157.809V38.3359H163.456ZM169.601 38.3359V49H167.594V38.3359H169.601ZM172.911 38.3359V39.9253H164.32V38.3359H172.911ZM178.946 38.3359V49H176.939V38.3359H178.946ZM182.257 38.3359V39.9253H173.666V38.3359H182.257ZM190.665 47.418V49H184.996V47.418H190.665ZM185.611 38.3359V49H183.597V38.3359H185.611ZM189.925 42.7378V44.2832H184.996V42.7378H189.925ZM190.643 38.3359V39.9253H184.996V38.3359H190.643ZM192.064 38.3359H195.938C196.749 38.3359 197.445 38.458 198.026 38.7021C198.607 38.9463 199.054 39.3076 199.366 39.7861C199.679 40.2646 199.835 40.853 199.835 41.5513C199.835 42.103 199.737 42.5815 199.542 42.9868C199.347 43.3921 199.071 43.7314 198.714 44.0049C198.363 44.2783 197.948 44.4932 197.469 44.6494L196.839 44.9717H193.419L193.404 43.3823H195.96C196.375 43.3823 196.72 43.3091 196.993 43.1626C197.267 43.0161 197.472 42.8135 197.608 42.5547C197.75 42.2959 197.821 42.0005 197.821 41.6685C197.821 41.312 197.752 41.0044 197.616 40.7456C197.479 40.4819 197.271 40.2793 196.993 40.1377C196.715 39.9961 196.363 39.9253 195.938 39.9253H194.078V49H192.064V38.3359ZM198.084 49L195.616 44.2246L197.748 44.2173L200.245 48.8975V49H198.084Z" fill="white"/>
<path d="M297.258 45.4917H299.272C299.219 46.2046 299.021 46.8369 298.679 47.3887C298.337 47.9355 297.861 48.3652 297.251 48.6777C296.641 48.9902 295.901 49.1465 295.032 49.1465C294.363 49.1465 293.76 49.0293 293.223 48.7949C292.69 48.5557 292.234 48.2163 291.853 47.7769C291.477 47.3325 291.189 46.8003 290.989 46.1802C290.789 45.5552 290.688 44.8545 290.688 44.0781V43.2651C290.688 42.4888 290.791 41.7881 290.996 41.1631C291.201 40.5381 291.494 40.0059 291.875 39.5664C292.261 39.1221 292.722 38.7803 293.259 38.541C293.801 38.3018 294.407 38.1821 295.076 38.1821C295.945 38.1821 296.68 38.3433 297.28 38.6655C297.881 38.9829 298.347 39.4199 298.679 39.9766C299.011 40.5332 299.211 41.1729 299.28 41.8955H297.266C297.227 41.4463 297.129 41.0654 296.973 40.7529C296.821 40.4404 296.592 40.2036 296.284 40.0425C295.981 39.8765 295.579 39.7935 295.076 39.7935C294.685 39.7935 294.341 39.8667 294.043 40.0132C293.75 40.1597 293.506 40.3794 293.311 40.6724C293.115 40.9604 292.969 41.3218 292.871 41.7563C292.773 42.186 292.725 42.6841 292.725 43.2505V44.0781C292.725 44.6201 292.769 45.106 292.856 45.5356C292.944 45.9653 293.081 46.3291 293.267 46.627C293.452 46.9248 293.691 47.1519 293.984 47.3081C294.277 47.4644 294.626 47.5425 295.032 47.5425C295.525 47.5425 295.925 47.4644 296.233 47.3081C296.545 47.1519 296.782 46.9224 296.943 46.6196C297.109 46.3169 297.214 45.9409 297.258 45.4917ZM304.583 46.9126L307.241 38.3359H309.475L305.71 49H304.224L304.583 46.9126ZM302.129 38.3359L304.773 46.9126L305.154 49H303.652L299.902 38.3359H302.129Z" fill="white"/>
<circle cx="364" cy="48" r="45" fill="#D9D9D9"/>
<rect width="54" height="54" transform="translate(337 21)" fill="#D9D9D9"/>
<path d="M364 56.0482L356.039 48.0855L357.63 46.4678L362.875 51.7125V32.25H365.125V51.7125L370.368 46.47L371.961 48.0855L364 56.0482ZM348.25 63.75V54.6645H350.5V61.5H377.5V54.6645H379.75V63.75H348.25Z" fill="#3D4849"/>
</g>
<defs>
<clipPath id="clip0_141_1300">
<rect width="441" height="93" fill="white"/>
</clipPath>
</defs>
</svg>
