<svg width="60" height="60" viewBox="0 0 60 60" fill="none" xmlns="http://www.w3.org/2000/svg">
<circle cx="30" cy="30" r="29" stroke="#CED0D0" stroke-width="2"/>
<path d="M31.5146 41.376C31.4057 41.2672 31.3193 41.1379 31.2603 40.9956C31.2013 40.8534 31.171 40.7009 31.171 40.5469C31.171 40.3929 31.2013 40.2404 31.2603 40.0981C31.3193 39.9559 31.4057 39.8266 31.5146 39.7178L40.062 31.1719H17.1094C16.7986 31.1719 16.5005 31.0484 16.2807 30.8287C16.061 30.6089 15.9375 30.3108 15.9375 30C15.9375 29.6892 16.061 29.3911 16.2807 29.1714C16.5005 28.9516 16.7986 28.8281 17.1094 28.8281H40.062L31.5146 20.2822C31.2948 20.0623 31.1712 19.7641 31.1712 19.4531C31.1712 19.1422 31.2948 18.8439 31.5146 18.624C31.7345 18.4041 32.0328 18.2806 32.3438 18.2806C32.6547 18.2806 32.953 18.4041 33.1729 18.624L43.7197 29.1709C43.8287 29.2797 43.9151 29.409 43.9741 29.5513C44.0331 29.6935 44.0634 29.846 44.0634 30C44.0634 30.154 44.0331 30.3065 43.9741 30.4488C43.9151 30.591 43.8287 30.7203 43.7197 30.8291L33.1729 41.376C33.064 41.4849 32.9348 41.5714 32.7925 41.6304C32.6502 41.6893 32.4978 41.7197 32.3438 41.7197C32.1897 41.7197 32.0373 41.6893 31.895 41.6304C31.7527 41.5714 31.6235 41.4849 31.5146 41.376Z" fill="#E3E3E3"/>
</svg>
